<svg width="1512" height="3260" viewBox="0 0 1512 3260" fill="none" xmlns="http://www.w3.org/2000/svg">
<rect width="1512" height="3260" fill="#FFE2E2"/>
<g clip-path="url(#clip0_0_1)">
<rect width="1512" height="3260" fill="white"/>
<rect width="1512" height="3260" fill="black"/>
<path d="M935 490.665C935 594.165 913 661.665 763.5 681.665C650.006 681.665 550.08 595.886 568 490.665C613.415 224 744 180 866 236C988 292 935 387.165 935 490.665Z" fill="#F0D800"/>
<path fill-rule="evenodd" clip-rule="evenodd" d="M630 498C675.304 466.84 670 550.857 742 556C814 561.143 846 485.053 885.757 518.157C925.514 551.261 818.209 639.53 728 626C637.792 612.469 584.696 529.16 630 498Z" fill="black"/>
<path d="M853.336 529.415C858.247 540.995 859.22 554.132 847.118 559.574C835.016 565.016 826.025 554.661 821.114 543.081C816.203 531.501 822.213 525.607 831.111 521.833C840.009 518.059 848.425 517.835 853.336 529.415Z" fill="white"/>
<path d="M814.826 555.602C818.002 567.773 817.055 580.912 804.29 584.537C791.526 588.162 784.136 576.61 780.96 564.439C777.784 552.268 784.588 547.31 793.94 544.87C803.291 542.43 811.65 543.431 814.826 555.602Z" fill="white"/>
<path d="M770.065 568.615C770.998 581.159 767.701 593.913 754.493 595.18C741.284 596.448 736.095 583.755 735.162 571.211C734.229 558.667 741.814 555.015 751.452 554.298C761.09 553.581 769.132 556.071 770.065 568.615Z" fill="white"/>
<path d="M716.417 564.365C712.252 576.233 704.126 586.602 691.514 582.478C678.902 578.353 679.227 564.643 683.392 552.775C687.557 540.906 695.97 540.595 705.09 543.795C714.209 546.996 720.583 552.496 716.417 564.365Z" fill="white"/>
<path d="M677.346 540.36C668.088 548.876 656.041 554.204 646.85 544.633C637.66 535.061 644.394 523.115 653.652 514.6C662.91 506.085 670.481 509.767 677.024 516.88C683.566 523.994 686.604 531.845 677.346 540.36Z" fill="white"/>
<path d="M742 436C734.484 479.594 731.871 516.693 697.248 510.724C657.299 503.836 656.924 467.381 664.44 423.787C671.957 380.193 685.659 346.165 724.467 352.857C763.275 359.548 749.516 392.406 742 436Z" fill="white"/>
<path d="M713.308 435.6C707.432 466.808 711.52 493.774 688.105 489.365C676.479 487.175 670.682 464.91 673.9 437.758C674.261 434.709 692.441 434.933 693.034 431.782C693.628 428.632 676.612 422.228 677.384 419.257C684.261 392.794 697.759 374.161 709.385 376.351C732.8 380.76 719.185 404.392 713.308 435.6Z" fill="black"/>
<path fill-rule="evenodd" clip-rule="evenodd" d="M630 498C679.5 474 670 550.857 742 556C814 561.143 850 479.5 885.757 518.157C921.514 556.813 818.209 639.53 728 626C637.792 612.469 580.523 521.988 630 498Z" stroke="#FF89DE" stroke-width="31"/>
<path d="M762 486C762 486 684.413 646 587.206 660C454 679.185 432.515 601.688 352 590C134 558.355 215.87 886.192 388 810.885C516 754.885 505.248 872.999 587.206 876C665.392 878.863 703.333 753.345 781.207 760.885C896 772 937.898 843.181 928 904C917.033 971.392 839.142 1085.84 730 1114C626.987 1140.58 512.83 997.057 420 1028C324 1060 317.887 1188 362 1296C420 1438 532 1428.03 572 1406C620.811 1379.12 650 1242 718 1232C819.028 1217.14 825.898 1365.55 928 1364C1011.23 1362.73 1046.76 1296 1130 1296C1244 1296 1270.25 1400.95 1244 1482C1221.83 1550.45 1159.83 1584.08 1088 1580C1029.56 1576.68 976.006 1477.87 918 1470C829.586 1458 753.851 1493.86 740 1582C718 1722 879.466 1755.47 898 1850C918 1952 808 1951.88 690 1938C572 1924.12 602 1808 466 1768C330 1728 29.5035 2180.42 288 2200C420 2210 362 2036 498 2070C626.704 2102.18 498.027 2283.04 588 2320C681.252 2358.3 737.775 2228.87 838 2218C1004 2200 1132 2320 1132 2566C1132 2718.83 1072 2854 930 2824C846.337 2806.32 814 2680 678 2658C586.093 2643.13 482 2698 482 2840C482 3000 536.807 3057.67 646 3068C794 3082 782 2976 906 2976C989.397 2976 1062.29 3024.51 1050 3172C1040 3292 946 3314 946 3314" stroke="#E2CC00" stroke-width="40" stroke-linecap="round"/>
<path d="M834 446C821.781 488.516 811.493 530.762 777.727 521.058C738.765 509.86 742.363 473.581 754.582 431.065C766.801 388.549 784.128 356.216 821.976 367.094C859.825 377.972 846.22 403.484 834 446Z" fill="white"/>
<path d="M801.786 455.625C794.499 486.534 797.36 513.657 774.168 508.19C762.653 505.476 757.873 482.97 762.32 455.992C762.819 452.963 780.97 454.011 781.706 450.891C782.442 447.771 765.734 440.601 766.64 437.668C774.711 411.545 789.04 393.544 800.555 396.258C823.747 401.726 809.072 424.715 801.786 455.625Z" fill="black"/>
</g>
<defs>
<clipPath id="clip0_0_1">
<rect width="1512" height="3260" fill="white"/>
</clipPath>
</defs>
</svg>
